<?xml version="1.0" encoding="UTF-8"?>
<!DOCTYPE svg  PUBLIC '-//W3C//DTD SVG 1.0//EN'  'http://www.w3.org/TR/2001/REC-SVG-20010904/DTD/svg10.dtd'>
<svg version="1" viewBox="0 0 992 496" xmlns="http://www.w3.org/2000/svg" xmlns:xlink="http://www.w3.org/1999/xlink">
 <path d="m0-4e-6h992v496h-992z" fill="#076a21" fill-rule="evenodd"/>
 <path d="m0 248.03h992v248h-992z" fill="#fdd401" fill-rule="evenodd"/>
 <path d="m782.44 189.74-4.8597-38.338" fill="none" stroke="#000" stroke-width="1.898"/>
 <g stroke="#003d00" stroke-width="1.2455">
  <path d="m825.47 373.48s-13.543-9.8497-15.39-20.315c-1.8468-10.465-3.078-24.624-3.078-24.624l9.8497 5.5404s1.2312 14.159 1.8468 20.315c0.61561 6.1561 6.7717 19.084 6.7717 19.084zm20.427-118.78c10.421-0.82123 10.969 15.975 10.969 15.975s-18.468-9.8497-26.471-9.8497c-8.0029 0 15.502-6.1249 15.502-6.1249z" fill="#016b29" fill-rule="evenodd"/>
  <path d="m856.54 269.92c-0.40425-0.40425-14.068-13.825-20.778-13.664-6.7105 0.16171-6.8722 0.3234-6.8722 0.3234" fill="none"/>
  <path d="m741.13 262.05h-16.006c-5.5404 0-16.006-1.2312-16.006-1.2312s14.775 9.8497 22.777 9.2341c8.0029-0.61561 27.087 0.61561 27.087 0.61561l-11.081-8.0029-6.7717-0.61561z" fill="#016b29" fill-rule="evenodd"/>
  <path d="m710.69 261.35s14.715 4.2042 20.536 4.4467c5.8212 0.24255 22.153-0.8085 22.153-0.8085" fill="none"/>
  <path d="m823.62 372.25c-1.8468-3.078-9.8497-12.312-11.081-20.315-1.2312-8.0029 1.8468-19.084 1.8468-19.084m-99.728 22.162s30.78-39.399 36.321-44.324c5.5404-4.9248 30.78-17.853 33.858-20.931 3.078-3.078 32.011-30.78 38.167-33.243 6.1561-2.4624 24.009-1.8468 24.009-1.8468s-6.156 1.2312-9.8497 4.3092c-3.6936 3.078-11.696 11.696-17.237 15.39-5.5404 3.6936-48.017 30.78-53.558 36.936-5.5404 6.156-13.543 16.621-17.853 20.315-4.3092 3.6936-33.858 23.393-33.858 23.393z" fill="#016b29" fill-rule="evenodd"/>
  <path d="m740.52 262.05s17.853 11.696 20.931 15.39c3.078 3.6936 17.853 18.468 19.084 20.931 1.2312 2.4624 20.931 30.78 26.471 35.705 5.5404 4.9248 11.081 12.928 11.696 16.621l0.61561 3.6936s-1.2312-25.24-2.4624-27.702c-1.2312-2.4624-6.7716-4.3092-11.696-9.8497-4.9248-5.5404-14.775-10.465-24.624-25.855-3.078-7.3873-20.931-28.318-25.24-29.549-4.3092-1.2312-14.775 0.61559-14.775 0.61559z" fill="#016b29" fill-rule="evenodd"/>
  <path d="m859.94 337.16s-3.6936-16.621-17.237-26.471c-13.543-9.8497-36.936-19.084-62.176-19.699-25.24-0.61561-38.783 1.8468-40.63 2.4624-1.8468 0.61561-6.156 10.465-6.156 10.465s25.24-5.5404 40.63-5.5404c15.39 0 46.17 11.696 52.326 15.39 6.156 3.6936 33.243 23.393 33.243 23.393z" fill="#016b29" fill-rule="evenodd"/>
  <path d="m716.51 353.16s25.24-22.162 28.933-25.855c3.6936-3.6936 11.081-16.006 16.621-19.699 5.5404-3.6936 45.555-33.243 48.633-35.705 3.078-2.4624 19.699-16.621 19.699-16.621" fill="none"/>
  <path d="m739.28 298.99s27.087-5.5404 39.399-4.9248c12.312 0.61561 56.02 17.853 60.329 20.931s18.468 19.699 18.468 19.699" fill="none"/>
  <path d="m818.7 341.47s-37.552-48.633-44.324-56.02c-6.7717-7.3872-27.702-24.009-27.702-24.009" fill="none"/>
  <path d="m707.89 318.07s12.928-9.8497 18.468-14.159 13.543-10.465 13.543-10.465l7.9377-1.1301s-8.5533 12.211-13.478 15.905c-4.9248 3.6936-26.471 9.8497-26.471 9.8497z" fill="#016b29" fill-rule="evenodd"/>
  <path d="m743.15 293.07s-8.405 8.6005-11.598 10.946c-3.1926 2.3456-21.306 12.64-21.306 12.64" fill="none"/>
  <path d="m786.07 424.57-1.2312-182.22s4.3092-3.078 6.156-11.696c1.8468-8.6185-1.2312-40.014-1.2312-40.014s-21.546-4.3092-20.931-1.8468c0.61561 2.4624 2.4624 29.549 3.6936 34.474 1.2312 4.9248 6.7717 19.084 6.7717 19.084s-3.6936 159.44-3.6936 165.6c0 6.156 10.465 16.621 10.465 16.621z" fill="#016b29" fill-rule="evenodd"/>
  <path d="m775.31 198.82-1.3721 17.837m2.7441 1.8294c0-1.8294 1.3721-18.752 1.3721-18.752m2.7441 22.41-0.45735-25.154m3.6588 30.643 0.45735-27.441m0.45736 32.93s3.2015-7.3177 3.2015-14.178v-16.465m-12.84 205.01s3.536-2.6 7.5081 3.4809c2.7441 4.1162 3.2015 10.574 3.3243 12.662" fill="none"/>
 </g>
 <path d="m718.35 140.78s1.8468 23.393 8.6185 29.549c6.7717 6.156 24.009 6.7717 24.009 6.7717s-19.084 10.465-20.315 20.931 10.465 25.24 10.465 25.24 3.6936-5.5404 6.156-6.7717c2.4624-1.2312 8.0029-0.61561 11.081-2.4624 3.078-1.8468 10.465-10.465 13.543-10.465s12.312 8.6185 16.006 10.465c3.6936 1.8468 9.2341 3.6936 11.696 5.5404 2.4624 1.8468 6.1561 3.6936 6.1561 3.6936s4.3092-4.3092 6.156-7.3873c1.8468-3.078 0-4.9248 1.8468-8.0029 1.8468-3.078 10.465-12.312 8.6185-17.237-1.8468-4.9248-4.3092-6.156-8.6185-6.7717-4.3092-0.6156-8.6185 0-8.6185 0l8.6185-4.9248s4.9248 1.8468 9.2341 1.8468c4.3092 0 19.699-4.9248 22.777-5.5404 3.078-0.61561 10.465 1.2312 10.465 1.2312s-2.4624-26.471-23.393-27.702c-20.931-1.2312-18.468 11.696-24.009 15.39-5.5404 3.6936-9.8497 8.6185-9.8497 8.6185s1.8468-6.156 4.9248-9.8497c3.078-3.6936 10.465-11.081 12.928-14.775 2.4624-3.6936 5.5404-12.928 5.5404-17.237s-3.078-11.696-3.078-15.39c0-3.6936 0.61561-7.3873 0.61561-7.3873s-12.312 3.6936-19.699 9.8497c-7.3873 6.156-15.39 20.315-15.39 20.315s-5.5404-10.465-9.2341-13.543c-3.6936-3.078-13.543-8.0029-16.006-10.465s-5.5404-7.3873-5.5404-7.3873-8.0029 16.621-8.0029 22.162c0 5.5404 4.3092 14.159 4.3092 14.159-6.156-2.4624-13.543 0.6156-19.084 0.6156-5.5404 0-12.928-3.078-12.928-3.078z" fill="#dd1810" fill-rule="evenodd" stroke="#000" stroke-width="1.2455"/>
 <path d="m741.94 203.78s4.3197-9.1794 9.7194-10.799c5.3997-1.6199 23.219 2.1599 23.219 2.1599l-2.6998 5.9396s-7.0196 0-7.5595-2.1599c-0.53996-2.1599 1.6199-3.2398 1.6199-3.2398s-8.0995-0.53997-12.959 0c-4.8597 0.53997-11.339 8.0995-11.339 8.0995z" fill="#fee500" fill-rule="evenodd"/>
 <path d="m787.84 194.6s3.7798 0.53997 5.9396 3.2398 5.3997 8.6394 5.3997 8.6394 2.1599-4.3197-0.53997-7.5595c-2.6998-3.2398-4.8597-4.8597-4.8597-4.8597l2.1599-3.2398s3.2398 0.53996 4.8597 3.2398c1.6199 2.6998 3.2398 3.7798 3.2398 3.7798s1.0799-3.7798-1.0799-5.9396c-2.1599-2.1599-3.7798-2.6998-3.7798-2.6998s2.1599-1.6199 5.3997-0.53997 8.6394 4.3197 8.6394 4.3197-3.2398-5.3997-5.9396-5.9396c-2.6998-0.53996-6.4796-0.53996-6.4796-0.53996s14.039-14.579 19.439-17.819c5.3997-3.2398 15.659-4.8597 15.659-4.8597s0-2.1599-3.7798-2.6998c-3.7798-0.53997-19.979 8.0995-19.979 8.0995l3.7798-6.4796s-23.758 14.039-26.458 17.819c-2.6998 3.7798 4.3197-10.259 7.0195-13.499 2.6998-3.2398 8.0995-8.0995 9.7194-12.959 1.6199-4.8597 3.2398-8.6394 3.2398-8.6394s-10.259 9.7194-12.419 12.959c-2.1599 3.2398-3.7798 9.7194-7.0195 8.0995-3.2398-1.6199-3.7798-5.9396-3.7798-5.9396s-1.0799 7.5595-3.2398 7.0196c-2.1599-0.53996-3.2398-3.2398-3.2398-3.2398s0 4.8597-2.6998 4.3197-0.53996-4.3197-2.6998-8.0995c-2.1599-3.7798-5.3997-4.3197-5.3997-4.3197s2.6998 5.9396 2.1599 8.6394c-0.53996 2.6998-1.0799 9.1794-4.8597 7.0196-3.7798-2.1599-4.3197-5.3997-7.0195-4.8597-2.6998 0.53997 1.0799 2.6998-0.53997 4.3197-1.6199 1.6199-4.8597 2.6998-4.8597 2.6998s3.7798 0.53996 5.9396 3.7798c2.1599 3.2398 7.0195 3.2398 9.1794 7.5595 2.1599 4.3197 3.2398 10.799 3.2398 10.799l15.659-1.6199z" fill="#fee500" fill-rule="evenodd"/>
 <path d="m766.24 170.84 12.959 21.599s4.3197-5.9396 7.0195-5.9396c2.6998 0 5.9396 2.1599 5.9396 2.1599s1.6199-10.259 1.0799-13.499c-0.53996-3.2398-2.1599-6.4796-5.9396-6.4796s-4.8597-0.53996-5.9396 2.1599c-1.0799 2.6998-1.0799 11.339-1.0799 11.339s-1.6199-9.7194-5.3997-12.419-3.7798-3.7798-6.4796-2.1599c-2.6998 1.6199-2.1599 3.2398-2.1599 3.2398z" fill="#016b29" fill-rule="evenodd"/>
 <path d="m752.74 186.5s3.2398 3.2398 7.0195 3.2398 14.579 1.6199 14.579 1.6199l-0.53996-2.1599s-18.359-4.3197-21.059-2.6998zm-2.1599 14.579s-3.7798 1.0799-5.3997 4.3197c-1.6199 3.2398 0.53996 5.3997 0.53996 5.3997s0-3.7798 2.6998-5.3997c2.6998-1.6199 2.1599-4.3197 2.1599-4.3197zm-19.979-35.098s2.6998 3.2398 5.3997 3.2398c2.6998 0 8.0995 1.0799 8.0995 1.0799s-6.4796 3.2398-9.1794 2.1599c-2.6998-1.0799-4.3197-6.4796-4.3197-6.4796zm9.7194-16.739s2.6998 2.1599 6.4796 4.3197c3.7798 2.1599 6.4796 2.1599 6.4796 2.1599s-1.0799-2.1599-4.3197-3.7798c-3.2398-1.6199-8.6394-2.6998-8.6394-2.6998zm14.039-20.519s-1.6199 4.8597 0 9.1794c1.6199 4.3197 5.3997 8.0995 5.3997 8.0995s1.6199-6.4796-0.53996-9.1794c-2.1599-2.6998-4.8597-8.0995-4.8597-8.0995zm5.3997-1.6199s2.1599 3.2398 3.2398 5.9396c1.0799 2.6998 4.3197 5.3997 4.3197 5.3997s0-4.8597-2.1599-7.0196c-2.1599-2.1599-5.3997-4.3197-5.3997-4.3197zm52.917 1.6199s-2.1599 0-3.7798 3.2398c-1.6199 3.2398-0.53996 6.4796-0.53996 6.4796s0.53996-2.1599 2.6998-4.8597c2.1599-2.6998 1.6199-4.8597 1.6199-4.8597z" fill="#fee500" fill-rule="evenodd"/>
 <path d="m794.86 149.78c0.001366-1.4919-1.4495-2.7019-3.2398-2.7019-1.7903 0-3.2412 1.21-3.2398 2.7019-0.001366 1.4919 1.4495 2.7019 3.2398 2.7019 1.7903 0 3.2411-1.21 3.2398-2.7019zm-4.8596 5.3997c0.001366-1.4919-1.4495-2.7019-3.2398-2.7019-1.7903 0-3.2412 1.21-3.2398 2.7019-0.001366 1.4919 1.4495 2.7019 3.2398 2.7019 1.7903 0 3.2411-1.21 3.2398-2.7019z" fill-rule="evenodd"/>
 <path d="m800.26 150.86c0.001366-1.4919-1.4495-2.7019-3.2398-2.7019-1.7903 0-3.2412 1.21-3.2398 2.7019-0.001366 1.4919 1.4495 2.7019 3.2398 2.7019 1.7903 0 3.2411-1.21 3.2398-2.7019z" fill-rule="evenodd"/>
 <path d="m803.5 155.18c0.001366-1.4919-1.4495-2.7019-3.2398-2.7019-1.7903 0-3.2412 1.21-3.2398 2.7019-0.001367 1.4919 1.4495 2.7019 3.2398 2.7019 1.7903 0 3.2411-1.21 3.2398-2.7019zm-27.538-6.4796c0.001367-1.4919-1.4495-2.7019-3.2398-2.7019-1.7903 0-3.2412 1.21-3.2398 2.7019-0.001367 1.4919 1.4495 2.7019 3.2398 2.7019 1.7903 0 3.2411-1.21 3.2398-2.7019z" fill-rule="evenodd"/>
 <path d="m781.9 147.62c0.001366-1.4919-1.4495-2.7019-3.2398-2.7019-1.7903 0-3.2412 1.21-3.2398 2.7019-0.001366 1.4919 1.4495 2.7019 3.2398 2.7019 1.7903 0 3.2411-1.21 3.2398-2.7019z" fill-rule="evenodd"/>
 <path d="m787.3 149.24c0.001367-1.4919-1.4495-2.7019-3.2398-2.7019-1.7903 0-3.2412 1.21-3.2398 2.7019-0.001367 1.4919 1.4495 2.7019 3.2398 2.7019 1.7903 0 3.2411-1.21 3.2398-2.7019zm-17.279 4.8597c0.001367-1.4919-1.4495-2.7019-3.2398-2.7019-1.7903 0-3.2412 1.21-3.2398 2.7019-0.001367 1.4919 1.4495 2.7019 3.2398 2.7019 1.7903 0 3.2411-1.21 3.2398-2.7019zm-11.879 3.2398c0.001367-1.4919-1.4495-2.7019-3.2398-2.7019-1.7903 0-3.2412 1.21-3.2398 2.7019-0.001367 1.4919 1.4495 2.7019 3.2398 2.7019 1.7903 0 3.2411-1.21 3.2398-2.7019zm52.377 15.119c0.001367-1.4919-1.4495-2.7019-3.2398-2.7019-1.7903 0-3.2412 1.21-3.2398 2.7019-0.001367 1.4919 1.4495 2.7019 3.2398 2.7019 1.7903 0 3.2411-1.21 3.2398-2.7019zm7.5595 2.6998c0.001367-1.4919-1.4495-2.7019-3.2398-2.7019-1.7903 0-3.2412 1.21-3.2398 2.7019-0.001367 1.4919 1.4495 2.7019 3.2398 2.7019 1.7903 0 3.2411-1.21 3.2398-2.7019zm2.6998-5.3997c0.001367-1.4919-1.4495-2.7019-3.2398-2.7019-1.7903 0-3.2412 1.21-3.2398 2.7019-0.001367 1.4919 1.4495 2.7019 3.2398 2.7019 1.7903 0 3.2411-1.21 3.2398-2.7019z" fill-rule="evenodd"/>
 <path d="m834.82 170.84c0.001366-1.4919-1.4495-2.7019-3.2398-2.7019-1.7903 0-3.2412 1.21-3.2398 2.7019-0.001367 1.4919 1.4495 2.7019 3.2398 2.7019 1.7903 0 3.2411-1.21 3.2398-2.7019z" fill-opacity=".75" fill-rule="evenodd"/>
 <path d="m766.78 189.2c0.001366-1.4919-1.4495-2.7019-3.2398-2.7019-1.7903 0-3.2412 1.21-3.2398 2.7019-0.001366 1.4919 1.4495 2.7019 3.2398 2.7019 1.7903 0 3.2411-1.21 3.2398-2.7019zm6.4796 3.2398c0.001366-1.4919-1.4495-2.7019-3.2398-2.7019-1.7903 0-3.2412 1.21-3.2398 2.7019-0.001366 1.4919 1.4495 2.7019 3.2398 2.7019 1.7903 0 3.2411-1.21 3.2398-2.7019zm21.599 7.0195c0.001366-1.4919-1.4495-2.7019-3.2398-2.7019-1.7903 0-3.2412 1.21-3.2398 2.7019-0.001367 1.4919 1.4495 2.7019 3.2398 2.7019 1.7903 0 3.2411-1.21 3.2398-2.7019z" fill-rule="evenodd"/>
 <path d="m790.54 197.84c0.001366-1.4919-1.4495-2.7019-3.2398-2.7019-1.7903 0-3.2412 1.21-3.2398 2.7019-0.001367 1.4919 1.4495 2.7019 3.2398 2.7019 1.7903 0 3.2411-1.21 3.2398-2.7019zm-39.417-33.478c0.001366-1.4919-1.4495-2.7019-3.2398-2.7019-1.7903 0-3.2412 1.21-3.2398 2.7019-0.001367 1.4919 1.4495 2.7019 3.2398 2.7019 1.7903 0 3.2411-1.21 3.2398-2.7019zm6.4795 3.2398c0.001367-1.4919-1.4495-2.7019-3.2398-2.7019-1.7903 0-3.2412 1.21-3.2398 2.7019-0.001367 1.4919 1.4495 2.7019 3.2398 2.7019 1.7903 0 3.2411-1.21 3.2398-2.7019zm9.1794 5.9396c0.001366-1.4919-1.4495-2.7019-3.2398-2.7019-1.7903 0-3.2412 1.21-3.2398 2.7019-0.001366 1.4919 1.4495 2.7019 3.2398 2.7019 1.7903 0 3.2411-1.21 3.2398-2.7019zm-7.0195 1.0799c0.001367-1.4919-1.4495-2.7019-3.2398-2.7019-1.7903 0-3.2412 1.21-3.2398 2.7019-0.001367 1.4919 1.4495 2.7019 3.2398 2.7019 1.7903 0 3.2411-1.21 3.2398-2.7019zm3.2398 5.9396c0.001366-1.4919-1.4495-2.7019-3.2398-2.7019-1.7903 0-3.2412 1.21-3.2398 2.7019-0.001367 1.4919 1.4495 2.7019 3.2398 2.7019 1.7903 0 3.2411-1.21 3.2398-2.7019zm7.0195-0.53997c0.001367-1.4919-1.4495-2.7019-3.2398-2.7019-1.7903 0-3.2412 1.21-3.2398 2.7019-0.001367 1.4919 1.4495 2.7019 3.2398 2.7019 1.7903 0 3.2411-1.21 3.2398-2.7019zm-5.3997-16.199c0.001367-1.4919-1.4495-2.7019-3.2398-2.7019-1.7903 0-3.2412 1.21-3.2398 2.7019-0.001367 1.4919 1.4495 2.7019 3.2398 2.7019 1.7902 0 3.2411-1.21 3.2398-2.7019zm6.4796-2.6998c0.001366-1.4919-1.4495-2.7019-3.2398-2.7019-1.7903 0-3.2412 1.21-3.2398 2.7019-0.001366 1.4919 1.4495 2.7019 3.2398 2.7019 1.7903 0 3.2411-1.21 3.2398-2.7019zm6.4796-5.9255c0.001366-1.4919-1.4495-2.7019-3.2398-2.7019-1.7903 0-3.2412 1.21-3.2398 2.7019-0.001366 1.4919 1.4495 2.7019 3.2398 2.7019 1.7903 0 3.2411-1.21 3.2398-2.7019z" fill-rule="evenodd"/>
 <path d="m780.82 154.1c0.001367-1.4919-1.4495-2.7019-3.2398-2.7019-1.7903 0-3.2412 1.21-3.2398 2.7019-0.001367 1.4919 1.4495 2.7019 3.2398 2.7019 1.7903 0 3.2411-1.21 3.2398-2.7019zm3.7798 8.6394c0.001367-1.4919-1.4495-2.7019-3.2398-2.7019-1.7903 0-3.2412 1.21-3.2398 2.7019-0.001367 1.4919 1.4495 2.7019 3.2398 2.7019 1.7903 0 3.2411-1.21 3.2398-2.7019zm12.419 7.0196c0.001366-1.4919-1.4495-2.7019-3.2398-2.7019-1.7903 0-3.2412 1.21-3.2398 2.7019-0.001367 1.4919 1.4495 2.7019 3.2398 2.7019 1.7903 0 3.2411-1.21 3.2398-2.7019zm6.4796-5.9396c0.001367-1.4919-1.4495-2.7019-3.2398-2.7019-1.7903 0-3.2412 1.21-3.2398 2.7019-0.001367 1.4919 1.4495 2.7019 3.2398 2.7019 1.7903 0 3.2411-1.21 3.2398-2.7019zm7.0195-14.039c0.001367-1.4919-1.4495-2.7019-3.2398-2.7019-1.7903 0-3.2412 1.21-3.2398 2.7019-0.001367 1.4919 1.4495 2.7019 3.2398 2.7019 1.7903 0 3.2411-1.21 3.2398-2.7019zm-10.799 41.577c0.001367-1.4919-1.4495-2.7019-3.2398-2.7019-1.7903 0-3.2412 1.21-3.2398 2.7019-0.001367 1.4919 1.4495 2.7019 3.2398 2.7019 1.7903 0 3.2411-1.21 3.2398-2.7019z" fill-rule="evenodd"/>
 <path d="m788.24 186.54c0.94669-8.1136 3.0925-15.561 4.0392-23.675" fill="none" stroke="#000" stroke-width="1.898"/>
 <path d="m799.72 185.42c0.001367-1.4919-1.4495-2.7019-3.2398-2.7019-1.7903 0-3.2412 1.21-3.2398 2.7019-0.001367 1.4919 1.4495 2.7019 3.2398 2.7019 1.7903 0 3.2411-1.21 3.2398-2.7019z" fill-rule="evenodd"/>
 <path d="m799.72 180.02c0.001367-1.4919-1.4495-2.7019-3.2398-2.7019-1.7903 0-3.2412 1.21-3.2398 2.7019-0.001367 1.4919 1.4495 2.7019 3.2398 2.7019 1.7903 0 3.2411-1.21 3.2398-2.7019zm-31.318 19.439c0.001367-1.4919-1.4495-2.7019-3.2398-2.7019-1.7903 0-3.2412 1.21-3.2398 2.7019-0.001367 1.4919 1.4495 2.7019 3.2398 2.7019 1.7903 0 3.2411-1.21 3.2398-2.7019z" fill-rule="evenodd"/>
 <path d="m773.8 198.38c0.001366-1.4919-1.4495-2.7019-3.2398-2.7019-1.7903 0-3.2412 1.21-3.2398 2.7019-0.001367 1.4919 1.4495 2.7019 3.2398 2.7019 1.7903 0 3.2411-1.21 3.2398-2.7019zm7.0195 1.0799c0.001367-1.4919-1.4495-2.7019-3.2398-2.7019-1.7903 0-3.2412 1.21-3.2398 2.7019-0.001367 1.4919 1.4495 2.7019 3.2398 2.7019 1.7903 0 3.2411-1.21 3.2398-2.7019zm-10.799-31.318c0.001367-1.4919-1.4495-2.7019-3.2398-2.7019-1.7903 0-3.2412 1.21-3.2398 2.7019-0.001367 1.4919 1.4495 2.7019 3.2398 2.7019 1.7903 0 3.2411-1.21 3.2398-2.7019z" fill-rule="evenodd"/>
 <path d="m777.58 173.54c0.001366-1.4919-1.4495-2.7019-3.2398-2.7019-1.7903 0-3.2412 1.21-3.2398 2.7019-0.001366 1.4919 1.4495 2.7019 3.2398 2.7019 1.7903 0 3.2411-1.21 3.2398-2.7019z" fill-opacity=".75" fill-rule="evenodd"/>
 <path d="m791.07 187.45c3.6675-11.265 5.4697-24.128 5.4067-36.591" fill="none" stroke="#000" stroke-width="1.898"/>
 <path d="m795.94 162.74c0.001367-1.4919-1.4495-2.7019-3.2398-2.7019-1.7903 0-3.2412 1.21-3.2398 2.7019-0.001367 1.4919 1.4495 2.7019 3.2398 2.7019 1.7903 0 3.2411-1.21 3.2398-2.7019zm12.419 18.359c0.001367-1.4919-1.4495-2.7019-3.2398-2.7019-1.7903 0-3.2412 1.21-3.2398 2.7019-0.001367 1.4919 1.4495 2.7019 3.2398 2.7019 1.7903 0 3.2411-1.21 3.2398-2.7019z" fill-rule="evenodd"/>
 <path d="m782.05 188.43c3.1625-10.64 4.4598-22.08 4.6912-33.12m-7.4122 35.504c-2.7278-12.597-1.9916-25.06-4.9859-37.791m3.0925 34.965c-4.3033-9.135-5.942-18.67-10.112-27.405" fill="none" stroke="#000" stroke-width="1.898"/>
 <g transform="translate(-104.85 9.8748) scale(.90164)">
  <g id="a" fill-rule="evenodd" stroke="#917b01" stroke-width=".5">
   <path d="m265.31 205.58s5.3137-51.24 4.1751-51.619c-1.1387-0.37955-2.8466 0.75911-3.9853 0.18978s-0.03255-3.5216-0.03255-3.5216c1.5765-0.49141 3.1483-0.52068 4.7294-1.4742 1.5811-0.95356 3.1716-2.8314 4.7574-4.2471l-4.8134-27.565c5.8096 6.5119 9.2602 22.153 10.257 23.316 0.9072-1.5994 4.1269-16.093 10.382-23.843l-4.6716 27.617c1.5311 1.6986 2.5314 3.5348 3.8842 4.3866s3.3421 1.7121 4.5167 1.7172c1.6044-0.80221 1.1655 2.0954 0.02683 3.0443-1.1386 0.94888-3.9853 0.37955-3.9853 0.37955l4.7444 51.619s-8.1604-2.2773-14.423-2.6569c-6.2626-0.37955-15.562 2.6569-15.562 2.6569z" fill="#fed501"/>
   <path d="m270.05 170.85c0.86862-2.7429 1.4891-21.454 2.1095-22.923m0.37226 21.747c0.24818-2.7429 0.74453-21.551 0.74453-21.551m-5.2955 56.289c1.0102-4.0406 1.7317-31.603 2.4532-33.768m4.0832-22.326-0.1241 21.356m-3.5262 33.006c0.28862-4.0406 0.86585-31.748 0.86585-31.748m4.3976-1.4546c0.24817-0.48981 0.12409-21.062 0.12409-21.062m-3.0786 22.805-0.14431 31.459m4.712-33.3c0-1.4694 0.24817-19.69 0.12408-20.964m-2.8158 53.975c0.28861-0.72154 0.14431-31.026 0.14431-31.026m1.7317 30.882c0-2.1646 0.28861-29.006 0.1443-30.882m1.876 0.57722 0.14431 30.016m2.1646-30.449-0.14431 30.16m2.0203-30.305-0.1443 30.305m2.1646-28.717-0.14431 29.294m1.7317-29.583 0.72154 30.016m-7.9815-53.872 0.1241 20.376m8.579 3.4802 1.7317 30.016m-8.4493-54.166-0.12409 20.474m8.862 3.6761 2.1646 31.026m-9.2894-55.274-0.12408 20.572m1.8613-19.494-0.1241 19.886m1.4891-20.082 0.62045 20.376m0.62043-20.376 1.4891 20.376m0.24818-20.376 1.8613 21.062" fill="none" fill-opacity=".75"/>
   <path d="m278.82 139.77s-15.027-0.42315-17.304-1.1822c-2.2773-0.75911-3.6057-0.75911-3.6057-0.75911s1.8978-3.7955 3.6057-4.1751c1.708-0.37955 6.2626 1.8978 6.2626 1.8978l11.758 4.0459s14.052-6.1334 18.227-5.7539c4.1751 0.37955 4.3648 3.416 4.3648 3.416s-2.2773 0.94888-3.2262 1.5182c-0.94888 0.56933-20.082 0.99248-20.082 0.99248z" fill="#fed501"/>
   <path d="m261.75 146.32s-3.3247-3.7542-0.89701-6.3716c2.4277-2.6175 36.974-1.7789 38.682-0.2607 1.708 1.5182 0.66324 5.2408 0.66324 5.2408s-1.8978-0.7591-4.1751-0.94888c-2.2773-0.18977-6.4524 3.7955-6.4524 3.7955s-14.423 1.708-15.182 1.3284c-0.75911-0.37955-2.4671-5.124-5.5035-5.124s-7.1347 2.3404-7.1347 2.3404z" fill="#fed501"/>
   <path d="m260.95 150.59c1.0438 1.0438 7.9133-0.8379 9.2128-0.72443l19.659 1.7166c4.5286 0.39543 7.4453-2.0618 8.9635-2.2516s0.22126-5.6903-3.6393-5.7612c-3.8625-0.07096-25.377-0.00566-29.637 0.13612-4.2611 0.14184-5.6031 5.8408-4.5594 6.8845z" fill="#fed501"/>
   <path d="m260.63 144.23s1.2056-2.4822 2.7659-2.624 33.049-0.49645 34.184-0.07092c1.1347 0.42552 2.624 2.9077 2.624 2.9077" fill="none" fill-opacity=".75"/>
   <path d="m266.83 127.2s-0.37955-0.56933-1.3284-2.4671-1.3284-5.3137-1.3284-5.3137 4.1751-0.94888 5.8831 0.18978c1.708 1.1386 10.248 10.817 10.248 10.817s7.2115-8.7297 9.299-10.438c2.0875-1.708 6.0728-0.18978 6.0728-0.18978s-0.94888 5.8831-2.6569 7.591c-1.708 1.708-13.854 14.233-13.854 14.233l-12.335-14.423z" fill="#fed501"/>
   <path d="m278.21 128.15s0-11.576-0.18978-13.854c-0.18977-2.2773 2.2773-3.416 2.2773-3.416s1.8978 1.708 1.708 3.7955c-0.18977 2.0875 0 14.992 0 14.992l-3.7955-1.5182z" fill="#fed501"/>
   <path d="m258.15 137.42c0.3546-0.07092 3.546-1.8439 5.4609-1.5602s32.552-0.07092 33.9 0.07092c1.3475 0.14184 4.3971 1.2766 4.3971 1.2766m-40.921 13.333c1.2766-1.5602 2.1276-3.1205 4.1843-3.6878s29.574-0.92197 30.496-0.63828c0.92197 0.28368 3.3333 2.624 3.3333 2.624" fill="none" fill-opacity=".75"/>
   <path d="m264.9 134.8c-2.0875-1.5182-6.806-4.753-6.806-4.753s3.2262-1.5182 5.8831-0.94888c2.6569 0.56933 15.941 10.084 15.941 10.084s12.525-9.325 15.372-10.084c2.8466-0.7591 6.0728 1.5182 6.0728 1.5182s-5.1756 2.976-6.8836 5.0635c-1.708 2.0875-14.613 13.017-14.613 13.017s-12.879-12.379-14.967-13.897z" fill="#fed501"/>
   <path d="m276.69 137.26s-3.6058-17.27-3.7955-19.737c-0.18978-2.4671 0.56933-5.5035 0.56933-5.5035s3.2262 1.708 3.9853 3.7955c0.7591 2.0875 3.2262 14.992 3.2262 14.992s1.1387-13.474 2.0875-15.182 4.1751-3.416 4.1751-3.416 0.94888 3.6058 0.37955 5.6933c-0.56933 2.0875-5.3137 19.926-5.3137 19.926l-5.3137-0.56932z" fill="#fed501"/>
   <path d="m260.14 129.48s2.8368 1.1347 4.3261 2.4822c1.4893 1.3475 15.106 13.262 15.106 13.262s13.404-12.766 14.822-13.333c1.4184-0.56736 6.5956-1.2766 6.5956-1.2766" fill="none" fill-opacity=".75"/>
   <path d="m263.79 127.77 15.751 15.941s12.905-12.525 14.803-14.803c1.8978-2.2773 3.9853-4.7444 3.9853-4.7444s-6.4524 0.75911-8.5399 2.6569-9.6786 10.817-9.6786 10.817-9.299-9.4888-11.197-11.766-7.591-1.5182-7.591-1.5182 1.5182 2.0875 2.4671 3.416z" fill="#fed501"/>
   <path d="m262.09 124.19 17.643 16.484 16.486-16.035" fill="none"/>
   <path d="m280.68 133.47s-10.248-11.766-11.576-14.233-0.94887-4.1751-0.94887-4.1751 2.6569-0.56933 4.1751 1.1387c1.5182 1.708 8.1604 11.387 8.1604 11.387s5.6933-9.4888 7.0217-10.817c1.3284-1.3284 4.3648-1.708 4.3648-1.708s-0.18978 2.4671-1.708 5.124c-1.5182 2.6569-9.4888 13.284-9.4888 13.284z" fill="#fed501"/>
   <path d="m268.53 115.44 11.766 14.613 11.197-14.803" fill="none"/>
   <path d="m280.21 111.11 0.21277 18.581m-6.7374-17.305 6.8793 18.794 6.1701-18.368" fill="none" fill-opacity=".75"/>
   <path d="m264.89 119.76 15.035 17.234 15.106-17.092" fill="none" fill-opacity=".75"/>
   <path d="m268.34 172.56h23.722l-0.75911-9.6786h-22.014l-0.94888 9.6786z" fill="#fed501"/>
   <path d="m279.52 172.81 12.122-5.3394m-22.801 0.72154 9.9572-5.1951" fill="none" fill-opacity=".75"/>
  </g>
  <use id="b" transform="translate(46.178)" width="744.09448" height="1052.3622" xlink:href="#a"/>
  <use transform="translate(45.601 -.28862)" width="744.09448" height="1052.3622" xlink:href="#b"/>
  <path d="m240.94 31.89h166.54v70.866h-166.54z" fill="#fdd401" fill-rule="evenodd"/>
  <path d="m375.39 93.563a1.2331 2.6002 73.114 1 0-0.71636-2.3598 1.2331 2.6002 73.114 1 0 0.71636 2.3598zm7.2514 2.3373a1.2331 2.6002 14.511 1 0-2.3875-0.61795 1.2331 2.6002 14.511 1 0 2.3875 0.61795zm8.1062-0.69692a1.2331 2.6002-64.112 1 0 1.0768-2.2187 1.2331 2.6002-64.112 1 0-1.0768 2.2187zm-15.955-7.5785a1.2331 2.6002 86.195 1 0-0.16368-2.4607 1.2331 2.6002 86.195 1 0 0.16368 2.4607zm-53.153-4.5127a1.2331 2.6002-78.608 1 0 0.48713-2.4176 1.2331 2.6002-78.608 1 0-0.48713 2.4176zm-2.8879 4.9086a1.2331 2.6002 76.376 1 0-0.5809-2.3968 1.2331 2.6002 76.376 1 0 0.5809 2.3968zm11.957 8.5416a1.2314 2.6038 3.4327 1 0-2.4654-0.01719 1.2314 2.6038 3.4327 1 0 2.4654 0.01719zm-8.7831-3.0129a1.2331 2.6002 43.294 1 0-1.795-1.6911 1.2331 2.6002 43.294 1 0 1.795 1.6911zm-54.8-51.895a1.2331 2.6002 18.301 1 0-2.3414-0.7744 1.2331 2.6002 18.301 1 0 2.3414 0.7744zm-6.9973-3.7809a2.6002 1.2331 65.758 1 0-2.2487 1.0126 2.6002 1.2331 65.758 1 0 2.2487-1.0126zm-9.9055 13.068a2.6002 1.2331-0.56912 1 0 0.024496 2.4661 2.6002 1.2331-0.56912 1 0-0.024496-2.4661zm1.5204-11.575a2.6002 1.2331 20.847 1 0-0.87763 2.3047 2.6002 1.2331 20.847 1 0 0.87763-2.3047zm1.5565 41.625a2.6002 1.2331-1.6902 1 0 0.072742 2.4651 2.6002 1.2331-1.6902 1 0-0.072742-2.4651zm-2.6921 7.7007a2.6002 1.2331-34.402 1 0 1.3934 2.0348 2.6002 1.2331-34.402 1 0-1.3934-2.0348zm6.668 6.678a1.2331 2.6002 19.947 1 0-2.3182-0.84132 1.2331 2.6002 19.947 1 0 2.3182 0.84132zm7.1319 1.8251a1.2331 2.6002 0 1 0-2.4662 0 1.2331 2.6002 0 1 0 2.4662 0z" fill="#0139ab" fill-rule="evenodd"/>
  <path d="m345.47 37.304s-13.565-0.86584-15.585 0c-2.0203 0.86584-2.3089 3.752-4.3292 3.752-2.0203 0-8.9471-0.57723-10.679-0.28862s-5.4837 2.3089-5.4837 5.1951c0 2.8861 0.72114 7.8076 11.256 8.0812 11.112 0.28862 30.016-6.9268 30.016-6.9268l0.28862 2.8861s4.3292-4.9065 6.6381-5.1951c2.3089-0.28862 4.6178 1.1545 3.752 2.3089-0.86585 1.1545-1.7317 2.0203-1.7317 2.0203s5.1951-1.4431 5.1951-3.1748c0-1.7317-1.1545-2.0203-1.1545-2.0203s3.1748 0.28862 4.3292 0 2.3089 1.4431 1.7317 2.5975-1.7317 2.8861-1.7317 2.8861 5.1951-1.4431 4.6178-2.8861-0.57723-2.3089-0.57723-2.3089 4.6178-0.86584 5.4837 0.57723c0.86584 1.4431-2.0203 8.6584-2.0203 8.6584s1.7317-4.6178 5.4837-5.4837c3.752-0.86584 5.7723-1.7317 8.0812-0.28862s10.102 4.6178 9.8129 8.6584c0 2.0203-3.4634 3.752-8.947 4.0406-5.4837 0.28862-23.378-4.0406-36.077-4.0406-12.699 0-18.471 2.3089-26.553 2.8861-8.0812 0.57723-51.085 0-51.085 0s-10.679-3.752-12.699-7.504c-2.0203-3.752 2.5975-7.7926 2.5975-7.7926l-1.7317-1.4431-2.0203 1.4431s1.7317-4.3292-1.7317-4.3292-3.1748 4.3292-3.1748 4.3292-2.3089-4.3292-3.752-4.6178c-1.4431-0.28862-2.3089 4.6178-2.3089 4.6178s4.0406 1.4431 3.752 3.4634c-0.28862 2.0203-5.1951 2.0203-5.1951 2.0203s-0.28861 3.752 0.86584 4.6178c1.1545 0.86584 3.4634-2.3089 4.6178-2.0203 1.1545 0.28861 0.86585 9.5243 0.86585 9.5243l1.7317-2.0203 0.28862 8.0812 1.7317-4.0406 0.28861 8.9471 6.3495-4.3292-2.8862 9.5243 4.0406-4.0406v5.7723l21.935-4.6178-2.3089 4.0406s-5.7723 4.9065-11.833 5.4837-10.679 1.1545-13.565 0.86584c-2.8862-0.28861-5.7723-5.4837-6.9268-5.1951s0.86584 3.1748-0.28862 4.6178-5.7723 2.5975-4.3292 3.4634c1.4431 0.86584 6.3495 0.57723 6.3495 2.0203s-3.1748 3.4634-0.86585 4.6178c2.3089 1.1545 5.1951-3.4634 5.7723-2.3089 0.57723 1.1545-0.57723 3.752 1.7317 3.752 2.3089 0 2.3089-3.1748 2.3089-3.1748l11.256 3.4634-2.5975-4.3292s3.752 2.3089 5.4837 2.8861 4.3292 0.57723 4.3292 0.57723l-3.4634-4.6178 7.504 4.0406-1.7317-4.6178 6.3495 3.752-1.1545-4.0406s2.5975 2.3089 4.6178 2.3089c2.0203 0 3.1748-1.7317 3.1748-1.7317l-2.0203-2.5975s2.3089 1.4431 5.1951 1.7317c2.8862 0.28862 7.504-1.7317 7.504-1.7317l-5.4837-1.7317 5.1951-1.7317-2.5975-1.7317 3.752-6.3495s1.4431 0.28862 6.6381 0 21.646-11.256 28.573-10.967c6.9268 0.28862 19.626 13.565 25.398 13.276 5.7723-0.28861 16.451-1.1545 16.451-1.1545s-1.7317 3.4634-2.5975 5.1951c-0.86584 1.7317-0.86584 4.0406-0.86584 4.0406l-5.4837-0.86584s0.28861-1.1545-2.0203-1.1545-1.1545 4.3292-1.1545 4.3292-1.7317 2.8861-0.28861 3.1748 3.4634-2.0203 4.6178-0.86584c1.1545 1.1545-0.57723 3.4634 1.1545 3.752 1.7317 0.28862 0.86584-4.3292 3.1748-4.0406 2.3089 0.28862 3.4634 3.1748 4.9064 2.8861 1.4431-0.28862 2.0203-2.8861 2.0203-2.8861s-2.0203-0.86584-2.0203-2.3089 2.3089-5.1951 3.752-5.1951c1.4431 0 1.1545 2.8861 1.1545 2.8861l1.4431-3.1748 1.7317 0.57723-2.3089-4.3292 4.9064 0.57723-2.8862-3.1748 3.1748-0.28862s-2.3089-1.1545-2.3089-2.8861c0-1.7317 0.86585-4.3292 0.86585-4.3292s-6.3495 2.3089-12.988 0.57723-15.008-9.8129-15.008-9.8129 15.297 2.5975 19.626 2.3089 9.8129-0.57723 10.679-4.0406c0.86584-3.4634-5.1951-12.988-5.1951-12.988v3.752s-5.7723-6.0609-25.109-7.504-33.768 11.545-50.508 10.102c-15.008-1.7317-8.3698-10.679-0.86585-9.8129 4.6178 0.57723 11.833 3.1748 15.297 3.1748s9.2357-3.752 10.39-8.0812z" fill="#d4170f" fill-rule="evenodd"/>
  <path d="m357.31 65.877c-2.0203 0.28862-24.244 0.86584-25.109 9.2357-0.86585 8.3698 8.9471 7.2154 8.9471 7.2154l-0.28861 2.8861s-6.3495 1.1545-10.102 1.1545-3.4634-4.3292-5.4837-4.9065c-2.0203-0.57723-2.5975 3.1748-2.5975 3.1748l-3.1748 0.28862 0.28862 3.1748 2.0203 1.1545 0.28861 2.3089 1.7317 2.5975 2.5975-1.4431 0.86584 3.752s0.86584-0.86584 2.0203-1.1545 2.0203 1.4431 2.0203 1.4431-0.28862-3.752 3.1748-4.0406c3.4634-0.28862 5.7723 3.752 5.7723 3.752v-4.0406l3.1748 3.1748 0.57723-4.3292 3.752 3.752 0.86585-3.752 2.0203 1.7317v-3.752l6.3495 3.1748 0.86584-3.752 5.1951 1.4431-1.7317-1.7317h5.4837s-2.0203-4.6178-3.752-6.3495c-1.7317-1.7317-10.967-4.6178-11.256-7.2154-0.28862-2.5975 5.4837-8.9471 5.4837-8.9471z" fill="#d4170f" fill-rule="evenodd"/>
  <path d="m281.69 52.023c-1.1545 0-12.41 10.679-13.854 12.699-1.4431 2.0203-0.57723 5.1951-0.57723 5.1951l4.9064-4.9065s-1.4431 2.8861-1.4431 5.1951 0.86584 4.9065 0.86584 4.9065l2.5975-6.3495v11.256l3.752-5.4837-2.3089 10.967 4.9064-8.0812s-2.5975 3.752-1.4431 6.3495c1.1545 2.5975 2.0203 3.1748 2.0203 3.1748l2.3089-9.5243s-0.28862 5.7723 0.86584 7.7926c1.1545 2.0203 3.1748 3.1748 3.1748 3.1748s0.28861-3.752 0.57723-6.6381c0.28861-2.8861-0.57723-5.1951-0.57723-5.1951s2.5975 3.4634 2.3089 5.4837c-0.28861 2.0203-1.1544 4.6178-1.1544 4.6178s3.1748-3.1748 3.752-5.7723-0.57723-4.9065-0.57723-4.9065 0.57723 5.4837 1.7317 6.9268 3.1748 3.1748 3.1748 3.1748v-9.8129s0.28861 5.4837 1.7317 6.9268c1.4431 1.4431 4.3292 1.4431 4.3292 1.4431s-2.3089-4.0406-2.5975-7.504c-0.28862-3.4634 0.57723-4.9065 0.57723-4.9065s0.86584 4.6178 1.1545 6.3495c0.28861 1.7317 0.86584 3.752 0.86584 3.752s0.57723-4.9065 0.86585-6.9268c0.28861-2.0203-0.28862-3.4634-0.28862-3.4634s2.5975 4.0406 2.0203 5.1951c-0.57723 1.1545 0 2.3089 0 2.3089s1.4431-5.1951 1.4431-7.504c0-2.3089-1.4431-4.3292-1.4431-4.3292l3.752 5.1951s1.1545-4.9065-0.57723-9.5243-10.679-9.8129-10.679-9.8129l-16.162-1.4431z" fill="#d4170f" fill-rule="evenodd" stroke="#fed501" stroke-width=".875"/>
  <path d="m277.65 45.674s-3.1748 2.5975-3.1748 5.7723 2.0203 4.0406 2.0203 4.0406l-1.1545 5.7723 2.0203-1.1545 0.28861 5.7723 2.0203-2.8861 0.86584 5.4837 2.0203-2.0203v5.4837l2.0203-2.5975 1.1545 2.8861 1.7317-3.1748 1.7317 2.8861 1.4431-2.8861 3.4634 0.86584-0.57723-1.7317 2.3089 0.28862-0.86585-4.6178 2.3089 3.1748 0.28861-3.752 2.5975 1.7317s1.7317-7.504 1.7317-12.122-1.4431-7.2154-1.4431-7.2154l2.8862-4.3292-4.9064 1.4431-1.4431-4.0406-2.8861 2.3089-0.86585-1.7317-1.1545 1.4431-1.4431-3.4634-2.0203 3.4634-3.1748-2.3089-0.57723 3.1748-2.5975-1.1545-0.28862 2.8861s-4.3292-3.1748-5.7723-3.1748c-1.4431 0 1.4431 5.4837 1.4431 5.4837z" fill="#d4170f" fill-rule="evenodd" stroke="#fed501" stroke-width=".875"/>
  <path d="m279.67 54.332c2.0203-0.57723 0.86584 5.1951 3.1748 5.7723 2.3089 0.57723 5.4837-2.0203 5.4837-2.0203s0.86584 2.8861 3.4634 2.5975c2.5975-0.28862 4.0406-6.0609 4.0406-6.0609" fill="none" stroke="#fed501" stroke-width=".75"/>
  <path d="m284.29 64.722s2.9315-3.7203 3.0505-6.1831c0.11587-2.3978-1.5442-2.652-1.5295-3.6677 0.01475-1.0158 0.67255-1.3741 2.0856-1.4241 1.4804-0.052443 2.498 0.60495 2.5702 1.6158 0.06742 0.94379-2.1362 1.0007-2.1362 3.5982 0 2.5975 3.1748 6.0609 3.1748 6.0609s-1.8181-0.28862-2.3953 0c-0.57723 0.28861-1.0681 2.3089-1.0681 2.3089s0.13483-1.7991-1.3082-2.0877c-1.4431-0.28861-2.4438-0.2212-2.4438-0.2212z" fill="#fed501" fill-rule="evenodd"/>
  <path d="m289.09 62.721a1.2331 2.6002 0 1 0-2.4662 0 1.2331 2.6002 0 1 0 2.4662 0z" fill="#0139ab" fill-rule="evenodd"/>
  <path d="m287.42 46.87c-1.4367 1.2099-2.5762 0.82804-4.58-0.041551-0.11342 0.98301 0.86584 4.3292 2.5975 4.0406 1.7317-0.28861 1.9825-3.9991 1.9825-3.9991zm-1.2905 2.0455c0 0.53219-0.43192 0.96411-0.96411 0.96411s-0.96411-0.43192-0.96411-0.96411c0-0.53219 0.43192-0.96411 0.96411-0.96411s0.96411 0.43192 0.96411 0.96411zm4.4921-1.8193c1.4367 1.2099 2.5006 0.14749 4.5044-0.7221 0.11342 0.98301-0.82803 4.8207-2.5597 4.5321-1.7317-0.28861-1.9447-3.3563-1.9447-3.81zm1.2527 1.8564c0 0.53219 0.43192 0.96411 0.96411 0.96411s0.96411-0.43192 0.96411-0.96411c0-0.53219-0.43192-0.96411-0.96411-0.96411s-0.96411 0.43192-0.96411 0.96411z" fill="#fed501" fill-rule="evenodd"/>
  <path d="m306.16 80.514c0.21388-0.42775 2.4596-5.5608 2.4596-5.5608s0.10693 3.1012 0.53468 2.5665c0.42775-0.53469 1.4971-3.8498 1.4971-3.8498s1.4971 2.1388 1.9249 1.3902 1.0694-1.711 1.0694-1.711 0.96244 2.7804 1.1763 2.0318c0.21388-0.74856 1.0694-2.4596 1.0694-2.4596s1.3902 2.7804 1.3902 2.1388c0-0.64162 0.42775-2.6734 0.42775-2.6734l1.0694 1.4971 1.8179-2.4596s-0.21387 2.8873 0.21388 2.1388 1.1763-2.3526 1.1763-2.3526 1.1763 1.8179 1.711 1.0694c0.53469-0.74856 0.8555-1.3902 0.8555-1.3902h1.3902l0.96244-1.6041 1.1763 1.2833 0.8555-1.1763m18.5 9.4105c4.4914-0.10694 4.7053-1.711 4.7053-1.711m-0.96244 3.3151s2.0318-0.32081 2.7804-1.3902m0 2.5665c2.7804-0.10694 2.6734-1.4971 2.6734-1.4971m0.42775 2.3526c2.6734 0.64162 2.2457-1.4971 2.2457-1.4971m-0.32082 3.7428c1.3902-0.10694 1.6041-1.8179 1.6041-1.8179m11.977-16.255c3.5289-0.64162 2.7804-0.10694 2.7804-0.10694m-0.8555 1.9249c1.711 0.10694 2.7804-1.2833 2.7804-1.2833m-0.74857 2.5665c1.8179-0.21388 2.0318-1.2833 2.0318-1.2833m0.42775 2.3526c1.711-0.21388 1.9249-1.1763 1.9249-1.1763m0.10694 2.1388c1.8179-0.74856 1.4971-1.2833 1.4971-1.2833" fill="none" stroke="#fed501" stroke-width=".75"/>
  <path d="m344.16 38.051c-6.3468-0.8071-7.3373 2.9716-7.3373 2.9716s3.7787-1.5042 4.1089-1.1373c0.33018 0.36687-0.73373 2.4947-0.29349 2.2746 0.44024-0.22012 3.0083-2.0178 3.5219-4.1089z" fill="#fed501" fill-rule="evenodd"/>
  <path d="m237.4 28.346h173.62v177.17c0 17.717-21.26 17.717-85.039 38.976-63.78-21.26-88.242-22.352-88.583-38.976v-177.17zm7.0866 7.0866h159.45v170.08c0 7.0866-14.173 10.63-77.953 31.89-63.78-21.26-81.496-24.803-81.496-31.89v-170.08z" fill="#feffff" fill-rule="evenodd"/>
 </g>
</svg>
