<?xml version="1.0" encoding="UTF-8"?>
<svg id="svg52" width="1200" height="600" version="1.1" viewBox="-4800 -2400 9600 4800" xmlns="http://www.w3.org/2000/svg" xmlns:cc="http://creativecommons.org/ns#" xmlns:dc="http://purl.org/dc/elements/1.1/" xmlns:rdf="http://www.w3.org/1999/02/22-rdf-syntax-ns#" xmlns:xlink="http://www.w3.org/1999/xlink">
 <metadata id="metadata56">
  <rdf:RDF>
   <cc:Work rdf:about="">
    <dc:format>image/svg+xml</dc:format>
    <dc:type rdf:resource="http://purl.org/dc/dcmitype/StillImage"/>
    <dc:title>Flag of Nova Scotia</dc:title>
   </cc:Work>
  </rdf:RDF>
 </metadata>
 <title id="title2">Flag of Nova Scotia</title>
 <defs id="defs10">
  <path id="f" d="m-4800-2400h9600v4800h-9600z"/>
  <clipPath id="c">
   <use id="use7" xlink:href="#f"/>
  </clipPath>
 </defs>
 <use id="use12" fill="#fff" xlink:href="#f"/>
 <path id="path14" d="m-4800-2400 9600 4800m-9600 0 9600-4800" clip-path="url(#c)" fill="none" stroke="#0047b6" stroke-width="960"/>
 <g id="g1251" transform="matrix(7.3836 0 0 7.2986 -3691.8 -2170.3)" stroke-width="1.0898">
  <path id="path2390" d="m500 443.5c59.365-20.692 102-77.11 102-143.5v-125h-102-102v125c0 66.39 42.635 122.81 102 143.5z" fill="none" stroke="#800080" stroke-miterlimit="4.9" stroke-width="1.0898"/>
  <path id="path2394" d="m500 427.5c50.919-19.911 87-69.517 87-127.5v-110h-87-87v110c0 57.983 36.081 107.59 87 127.5z" fill="none" stroke="#0f0" stroke-miterlimit="4.9" stroke-width="1.0898"/>
  <path id="path2406" d="m500 448.2c61.133-21.501 105-79.759 105-148.2v-129h-105-105v129c0 68.441 43.867 126.7 105 148.2z" fill="#fdd44f" fill-rule="evenodd" stroke="#000" stroke-miterlimit="4.9" stroke-width="1.0898"/>
  <path id="path2396" d="m428.91 204.91c-0.967-2.9972-3.7371-6.2924-6.3901-8.5114 1.7358 1.4518 3.5217 3.3643 4.8198 5.3526 0.7469 0.0618 1.4956 0.0289 2.2228-0.12304-1.5012-1.5009-2.6422-3.1696-4.0272-4.657-5.4276-5.8241-7.18-6.1392-10.429-9.3082-1.1215-1.0939-4.7788-4.3083-2.3693-6.6898 2.0828-2.0586 6.5879 1.0601 9.836-2.1153 1.5727-1.5372 1.6132-3.0866 0.9303-4.9571-1.5977 3.7726-4.0419 3.0462-6.6565 2.1653-2.8141-0.9482-5.6483-1.5352-7.3922-0.0231-1.5676 1.3593-1.3034 3.3921-0.5405 5.074-2.6897-3.4811-6.4892-6.0259-10.41-6.6126 0.5867 3.9204 3.1315 7.7199 6.6126 10.41-1.6819-0.76291-3.7147-1.0271-5.074 0.54046-1.5122 1.7439-0.9251 4.5781 0.0231 7.3922 0.8809 2.6146 1.6073 5.0588-2.1653 6.6565 1.8705 0.68293 3.4198 0.64245 4.9571-0.93032 3.1754-3.2481 0.0567-7.7531 2.1152-9.836 2.3815-2.4095 5.5959 1.2478 6.6898 2.3693 3.1691 3.2491 3.4841 5.0014 9.3082 10.429 1.4874 1.385 3.1561 2.526 4.657 4.0271 0.1519-0.72715 0.1849-1.4758 0.1231-2.2227-1.9884-1.2982-3.9008-3.0841-5.3527-4.8199 2.2191 2.653 5.5143 5.4232 8.5115 6.3901z" fill="#d21034" fill-rule="evenodd" stroke="#000" stroke-linecap="round" stroke-miterlimit="8" stroke-width=".54489"/>
  <path id="path2412" d="m500 175c1.0294 2.0218 1.6319 7.5549 1.325 11 0.2008-2.254 0.7577-7.7675 3.5789-9.9059-0.7753 2.7976-1.1392 6.395-1.114 8.9557 0.1028 10.49 1.2497 14.488 4.8249 14.437 2.6157-0.0374 2.8458-2.4768 5.8258-2.487 1.9802-7e-3 2.9795 0.94449 3.663 2.75-2.2348-0.91292-4.0916 0.0509-5.3316 1.707-1.1398 1.5223-2.8148 2.6517-4.6171 2.6497-2.575-3e-3 -4.7389-1.9457-5.6699-4.6432 0.3721 4.1759-0.4402 7.412-2.485 10.036-2.0448-2.6245-2.8571-5.8606-2.485-10.036-0.931 2.6975-3.0949 4.6404-5.6699 4.6432-1.8023 2e-3 -3.4773-1.1273-4.6171-2.6497-1.24-1.6561-3.0968-2.6199-5.3316-1.707 0.6835-1.8055 1.6828-2.7567 3.663-2.75 2.98 0.0102 3.2101 2.4496 5.8258 2.487 3.5752 0.0511 4.7221-3.9471 4.8249-14.437 0.0252-2.5607-0.3387-6.1582-1.114-8.9557 2.8212 2.1384 3.3781 7.6519 3.5789 9.9059-0.3069-3.4451 0.2956-8.9782 1.325-11z" fill="#d21034" fill-rule="evenodd" stroke="#000" stroke-linecap="round" stroke-miterlimit="8" stroke-width=".54489"/>
  <path id="path2399" d="m571.09 204.91c0.967-2.9972 3.7371-6.2924 6.3901-8.5114-1.7358 1.4518-3.5217 3.3643-4.8198 5.3526-0.7469 0.0618-1.4956 0.0289-2.2228-0.12304 1.5012-1.5009 2.6422-3.1696 4.0272-4.657 5.4276-5.8241 7.18-6.1392 10.429-9.3082 1.1215-1.0939 4.7788-4.3083 2.3693-6.6898-2.0828-2.0586-6.5879 1.0601-9.836-2.1153-1.5727-1.5372-1.6132-3.0866-0.9303-4.9571 1.5977 3.7726 4.0419 3.0462 6.6565 2.1653 2.8141-0.9482 5.6483-1.5352 7.3922-0.0231 1.5676 1.3593 1.3034 3.3921 0.5405 5.074 2.6897-3.4811 6.4892-6.0259 10.41-6.6126-0.5867 3.9204-3.1315 7.7199-6.6126 10.41 1.6819-0.76291 3.7147-1.0271 5.074 0.54046 1.5122 1.7439 0.9251 4.5781-0.0231 7.3922-0.8809 2.6146-1.6073 5.0588 2.1653 6.6565-1.8705 0.68293-3.4198 0.64245-4.9571-0.93032-3.1754-3.2481-0.0567-7.7531-2.1152-9.836-2.3815-2.4095-5.5959 1.2478-6.6898 2.3693-3.1691 3.2491-3.4841 5.0014-9.3082 10.429-1.4874 1.385-3.1561 2.526-4.657 4.0271-0.1519-0.72715-0.1849-1.4758-0.1231-2.2227 1.9884-1.2982 3.9008-3.0841 5.3527-4.8199-2.2191 2.653-5.5143 5.4232-8.5115 6.3901z" fill="#d21034" fill-rule="evenodd" stroke="#000" stroke-linecap="round" stroke-miterlimit="8" stroke-width=".54489"/>
  <path id="path2405" d="m399 277.5c2.0218-1.0294 7.5549-1.6319 11-1.325-2.254-0.2008-7.7675-0.7577-9.9059-3.5789 2.7976 0.7753 6.395 1.1392 8.9557 1.114 10.49-0.1028 14.488-1.2497 14.437-4.8249-0.0374-2.6157-2.4768-2.8458-2.487-5.8258-7e-3 -1.9802 0.9445-2.9795 2.75-3.663-0.9129 2.2348 0.0509 4.0916 1.707 5.3316 1.5224 1.1398 2.6517 2.8148 2.6497 4.6171-3e-3 2.575-1.9457 4.7389-4.6432 5.6699 4.1759-0.3721 7.412 0.4402 10.036 2.485-2.6245 2.0448-5.8606 2.8571-10.036 2.485 2.6975 0.931 4.6404 3.0949 4.6432 5.6699 2e-3 1.8023-1.1273 3.4773-2.6497 4.6171-1.6561 1.24-2.6199 3.0968-1.707 5.3316-1.8055-0.6835-2.7567-1.6828-2.75-3.663 0.0102-2.98 2.4496-3.2101 2.487-5.8258 0.0511-3.5752-3.9471-4.7221-14.437-4.8249-2.5607-0.0252-6.1581 0.3387-8.9557 1.114 2.1384-2.8212 7.6519-3.3781 9.9059-3.5789-3.4451 0.3069-8.9782-0.2956-11-1.325z" fill="#d21034" fill-rule="evenodd" stroke="#000" stroke-linecap="round" stroke-miterlimit="8" stroke-width=".54489"/>
  <path id="path2402" d="m601 277.5c-2.0218-1.0294-7.5549-1.6319-11-1.325 2.254-0.2008 7.7675-0.7577 9.9059-3.5789-2.7976 0.7753-6.395 1.1392-8.9557 1.114-10.49-0.1028-14.488-1.2497-14.437-4.8249 0.0374-2.6157 2.4768-2.8458 2.487-5.8258 7e-3 -1.9802-0.9445-2.9795-2.75-3.663 0.9129 2.2348-0.0509 4.0916-1.707 5.3316-1.5224 1.1398-2.6517 2.8148-2.6497 4.6171 3e-3 2.575 1.9457 4.7389 4.6432 5.6699-4.1759-0.3721-7.412 0.4402-10.036 2.485 2.6245 2.0448 5.8606 2.8571 10.036 2.485-2.6975 0.931-4.6404 3.0949-4.6432 5.6699-2e-3 1.8023 1.1273 3.4773 2.6497 4.6171 1.6561 1.24 2.6199 3.0968 1.707 5.3316 1.8055-0.6835 2.7567-1.6828 2.75-3.663-0.0102-2.98-2.4496-3.2101-2.487-5.8258-0.0511-3.5752 3.9471-4.7221 14.437-4.8249 2.5607-0.0252 6.1581 0.3387 8.9557 1.114-2.1384-2.8212-7.6519-3.3781-9.9059-3.5789 3.4451 0.3069 8.9782-0.2956 11-1.325z" fill="#d21034" fill-rule="evenodd" stroke="#000" stroke-linecap="round" stroke-miterlimit="8" stroke-width=".54489"/>
  <path id="path2409" d="m448.51 359.75c-2.2656 0.11941-8.2247 2.8642-11.055 4.8525 1.8516-1.3009 7.214-5.0399 7.6553-8.5524-2.0352 2.0702-4.9686 4.1841-7.1989 5.4426-9.1361 5.156-13.172 6.1619-14.915 3.0401-1.2755-2.284 0.72207-3.7029-0.75909-6.2888-0.9843-1.7182-2.3077-2.1081-4.2131-1.7972 1.908 1.479 2.0017 3.5689 1.1875 5.4708-0.74854 1.7483-0.88904 3.7635 0.0138 5.3234 1.2899 2.2286 4.0545 3.1312 6.8561 2.5887-3.8025 1.7657-6.1989 4.0872-7.4494 7.1703 3.2953 0.4586 6.504-0.45598 9.9344-2.8662-1.8706 2.155-2.4712 5.0005-1.1862 7.2319 0.89942 1.5618 2.7149 2.4478 4.6033 2.6737 2.0542 0.24582 3.8173 1.372 4.1441 3.7638 1.2218-1.4947 1.546-2.8357 0.55007-4.5472-1.4988-2.5757-3.7265-1.5552-5.0667-3.8018-1.8318-3.0707 1.0572-6.063 10.091-11.397 2.205-1.3022 5.5024-2.7857 8.3129-3.5131-3.2625-1.374-9.1818 1.4004-11.234 2.3535 3.137-1.4568 8.4936-5.2451 9.7298-7.1475z" fill="#d21034" fill-rule="evenodd" stroke="#000" stroke-linecap="round" stroke-miterlimit="8" stroke-width=".54489"/>
  <path id="path2414" d="m551.49 359.75c2.2656 0.11941 8.2247 2.8642 11.055 4.8525-1.8516-1.3009-7.214-5.0399-7.6553-8.5524 2.0352 2.0702 4.9686 4.1841 7.1989 5.4426 9.1361 5.156 13.172 6.1619 14.915 3.0401 1.2755-2.284-0.72207-3.7029 0.75909-6.2888 0.9843-1.7182 2.3077-2.1081 4.2131-1.7972-1.908 1.479-2.0017 3.5689-1.1875 5.4708 0.74854 1.7483 0.88904 3.7635-0.0138 5.3234-1.2899 2.2286-4.0545 3.1312-6.8561 2.5887 3.8025 1.7657 6.1989 4.0872 7.4494 7.1703-3.2953 0.4586-6.504-0.45598-9.9344-2.8662 1.8706 2.155 2.4712 5.0005 1.1862 7.2319-0.89942 1.5618-2.7149 2.4478-4.6033 2.6737-2.0542 0.24582-3.8173 1.372-4.1441 3.7638-1.2218-1.4947-1.546-2.8357-0.55007-4.5472 1.4988-2.5757 3.7265-1.5552 5.0667-3.8018 1.8318-3.0707-1.0572-6.063-10.091-11.397-2.205-1.3022-5.5024-2.7857-8.3129-3.5131 3.2625-1.374 9.1818 1.4004 11.234 2.3535-3.137-1.4568-8.4936-5.2451-9.7298-7.1475z" fill="#d21034" fill-rule="evenodd" stroke="#000" stroke-linecap="round" stroke-miterlimit="8" stroke-width=".54489"/>
  <path id="path2417" d="m500 440.5c1.0294-2.0218 1.6319-7.5549 1.325-11 0.2008 2.254 0.7577 7.7675 3.5789 9.9059-0.7753-2.7976-1.1392-6.395-1.114-8.9557 0.1028-10.49 0.7204-15.943 4.4187-16.625 1.8045-0.33267 3.6277 0.41891 5.2319-0.38799 2.0826-1.0475 2.3546-3.8195 1.7256-6.0625-0.7348 2.0067-2.5913 3.234-4.2691 3.2305-1.9327-4e-3 -2.4384-0.60747-3.897-0.60548-2.575 4e-3 -3.584 1.8025-4.515 4.5 0.3721-4.1759-0.4402-7.3755-2.485-10-2.0448 2.6245-2.8571 5.8241-2.485 10-0.931-2.6975-1.94-4.4965-4.515-4.5-1.4586-2e-3 -1.9643 0.60148-3.897 0.60548-1.6778 3e-3 -3.5343-1.2238-4.2691-3.2305-0.629 2.243-0.357 5.015 1.7256 6.0625 1.6042 0.8069 3.4274 0.0553 5.2319 0.38799 3.6983 0.68182 4.3159 6.1346 4.4187 16.625 0.0252 2.5607-0.3387 6.1582-1.114 8.9557 2.8212-2.1384 3.3781-7.6519 3.5789-9.9059-0.3069 3.4451 0.2956 8.9782 1.325 11z" fill="#d21034" fill-rule="evenodd" stroke="#000" stroke-linecap="round" stroke-miterlimit="8" stroke-width=".54489"/>
  <path id="path2400" d="m500 430.2c51.831-20.461 88.541-70.998 88.541-130.06v-112.15h-177.08v112.15c0 59.059 36.71 109.6 88.541 130.06zm0-7.9085c47.297-20.534 80.412-67.649 80.412-122.45v-104.84h-160.82v104.84c0 54.802 33.115 101.92 80.412 122.45z" fill="#fdd44f" fill-rule="evenodd"/>
  <path id="path2418" d="m500 432.2c52.685-20.798 90-72.168 90-132.2v-114h-90-90v114c0 60.032 37.315 111.4 90 132.2zm0-3.8c50.709-20.58 86.5-70.336 86.5-128.4v-110.5h-86.5-86.5v110.5c0 58.064 35.791 107.82 86.5 128.4z" fill="#d21034" fill-rule="evenodd" stroke="#000" stroke-linecap="round" stroke-width=".54489"/>
  <path id="path2422" d="m500 424.1c48.448-20.38 82.5-68.288 82.5-124.1v-106.5h-82.5-82.5v106.5c0 55.812 34.052 103.72 82.5 124.1zm0-3.8c46.467-20.174 79-66.461 79-120.3v-103h-79-79v103c0 53.839 32.533 100.13 79 120.3z" fill="#d21034" fill-rule="evenodd" stroke="#000" stroke-linecap="round" stroke-width=".54489"/>
  <path id="rect2399" d="m476.14 224.02c2.336-1.599 4.2676 1.8444 7.2479 2.9168 3.0734 1.1059 6.8546 1.0607 9.7227 0.61872-2.7194 2.4179-10.176 5.9248-15.114 2.8284-2.4499-1.536-3.3758-5.3238-1.8562-6.364z" fill="#d21034" fill-rule="evenodd" stroke="#000" stroke-linecap="round" stroke-width=".54489"/>
  <path id="path2407" d="m511.32 333.87c-6.8257-15.969-7.7646-38.384-17.327-36.326 1.5349-1.6033 2.0456-4.283 1.2864-6.1684-1.0847 3.6137-4.2051 6.8026-8.1817 6.9514 1.0888-4.5762-1.9123-8.1413-5.9116-8.0919-1.051 6.6518-6.9663 12.115-14.174 11.892 3.4376-9.0121-3.0035-13.03-8.9962-8.5193 2.5546 4.5415 2.3472 10.373-2.2715 13.081-1.162-1.8172-3.7136-3.844-3.85-7.5475-2.0708 2.4856-6.5005 4.4441-10.092 4.7652 0.259-2.7922-0.9815-7.4804 1.8158-10.441-3.6332 2.2746-8.123 1.9062-10.641-0.28797 2.9634-2.9492 5.533-7.2432 10.196-6.9096-3.8346-2.1195-3.3321-7.6057-4.5172-9.8058 5.2246-0.15418 11.205-0.36244 14.002 6.5229 2.8709-2.1286 6.2714-3.528 10.755-4.7497 7.1311-1.943 12.897-1.8657 19.341-5.2536 4.1079-2.1594 6.4185-5.5118 6.9315-8.288-2.6508 2.7515-9.1942 7.5255-13.642 7.5185 0.7269-1.3784 1.1983-2.639 1.3315-4.0782-2.9136 2.0819-6.5508 3.9071-10.93 4.6086 0.2277-1.4315 0.5714-3.6185 0.1753-4.8764-1.536 1.9944-4.4948 4.0617-6.7834 4.9584 2.369-3.9714 2.878-10.857 1.8329-16.288 1.2196-0.94219 2.3197-2.1228 3.2929-3.5482-1.9346 2.8333-4.3702 4.6997-7.2508 5.6482 3.35-5.3323 4.2711-12.955 1.8587-20.296-0.7963 1.6035-1.6333 3.4027-3.2119 4.8028 0.6067-4.4742-0.4234-11.189-1.8037-14.183-0.4439 2.3339-1.2745 4.9906-2.8842 6.8849-1.9133-6.7871-6.1406-7.772-5.0418-13.686-4.4612 5.4904-10.65 3.1925-14.591 3.1363 0.9471-4.5598 3.7467-8.6982 8.5373-10.869-5.6681-0.20499-6.4751-6.3104-7.3994-8.6736 2.7621 0.30687 8.0077-0.54413 10.418 3.8824 0.2605-5.0207 3.0428-6.3286 3.6477-7.643 0.9128 1.3363 3.7882 2.5282 4.1656 7.4891 3.5652-3.9945 7.068-2.8434 9.6237-2.5385 0.1035 2.7783 0.9937 8.5361-5.1625 10.942 1.4885-0.58171 2.565-1.3594 3.3403-2.2435-0.7753 0.88412-0.8418 2.7437-0.1378 3.7871 1.5702 2.3274 4.5871 5.479 8.201 9.4091 2.0847 2.2671 3.7919 6.1001 5.8856 9.4579 1.7199 2.7583 4.0658 5.9806 6.2708 8.1047 5.7321-3.7847 9.4871-2.167 20.245-6.6327 3.9845-1.6541 7.9631-4.2304 11.576-2.3913 7.0876 3.6074 10.772 19.998 9.8019 32.258-0.2837 3.584-0.1534 7.7431 0.4043 11.261 2.0224 12.758 6.6833 15.362 11.623 24.215 2.3206 4.1582 1.5998 10.853 6.6936 11.066 2.7917 0.11708 6.3975-2.3824 6.1686-8.7769-0.198-5.5344-4.2671-16.259-13.942-12.893 0.2141-3.7758 3.8153-7.4236 7.3076-9.0898-5.1285-4.7365-8.2664-14.66-8.1289-25.399 0.2629-20.198 11.244-25.587 11.236-36.098-5e-3 -7.011-3.2413-12.021-10.873-10.708 6.5149-8.8586 18.819-6.5873 23.372 1.9367 3.7067 6.9396 3.3155 16.725 0.1199 24.224 4.1463-2.1281 9.5386-3.3773 13.052-0.8749-16.973 7.8587-23.885 22.047-19.831 36.93 2.91-3.9314 7.3676-6.653 11.597-7.3574-3.2046 2.7274-5.9245 7.2257-5.9476 13.024-0.0337 8.7191 3.3105 16.154 3.2994 23.694-0.0141 9.7276-5.7581 17.506-15.108 18.959 2.3299 6.7428 13.376 8.059 19.004 1.7648 2.0921 6.8287-2.9612 14.23-9.5963 15.166 3.905 1.6324 8.4575 6.5561 7.5008 11.51-8.2809-5.554-16.947 3.6879-13.784 14.305-2.7204-0.29545-5.5069-2.0402-7.1168-4.4477-0.0637 2.9836-0.4581 8.9608 2.3646 13.846-1.9954 1.2755-5.0583 1.6722-7.4316 1.4935 0.2872 2.1031 0.9093 6.974-0.3019 9.7773-2.7935-1.2161-7.0832-4.7678-7.8093-8.558-2.1783 2.0864-5.8457 3.8626-8.5331 4.7587 1.6744 3.7538 2.0612 9.2318 0.5748 12.961-2.8946-3.5808-9.2778-3.3706-10.907-7.1416-1.4493 5.7144-6.3921 6.9888-9.0627 8.8706-0.9285-3.0759-3.0256-5.7449-1.4337-9.8529-4.9444 3.0271-10.267 1.3925-12.06 1.7401 0.494-4.6687 6.7387-10.043 10.086-10.923-2.7625-0.50964-6.8337-5.7159-8.4406-7.3399 7.3079-1.8598 16.863-3.8328 21.758 2.5076 3.8975-3.277 6.3609-2.8333 9.7538-4.9802 3.7707-2.386 6.4771-8.7008 11.959-12.128-6.5573-5.5669-13.179-13.56-17.302-23.207z" fill="#d21034" fill-rule="evenodd" stroke="#000" stroke-linecap="round" stroke-miterlimit="8" stroke-width=".54489"/>
  <path id="path2401" d="m508.48 266.95c0.8541 3.382 5.7017 6.6587 9.1551 6.6848 1.4025-2.3342 1.1205-5.9072-0.8651-8.4984 4.7484-0.41947 8.6398 4.6812 7.9631 11.781 1.5176-1.2499 2.3751-3.2852 2.3368-5.9098-0.0454-3.2567-1.9218-7.9978-1.6484-13.021 0.2785-5.1171 2.7068-8.4001 5.2858-10.471-3.4472-0.70234-7.1843-0.24255-10.325 2.3488 1.0269-3.898 5.3431-6.3494 9.3724-6.4199 0.7963-7.1163-2.2308-16.033-5.8518-20.05 4.1604-0.23272 8.0444-5.3429 7.8926-6.1271-2.6467-1.6832-6.5766-1.3798-9.2944-0.39644 1.3267-2.2205 2.0711-6.4299 1.1932-8.9265-1.5897 1.4684-3.8173 3.5047-6.7279 3.8867-3.0942 0.40614-5.988-1.3967-9.7024-0.51037-4.1911 1-6.3123 3.9558-10.099 4.8906-5.9332 1.4647-11.724-1.1266-13.405 1.1839-1.1172 1.5352-0.2416 3.4705 0.6036 5.8229 0.4426 1.2319 0.5766 2.7158 0.5767 4.1638 2.7304 0.62915 5.7721 0.53723 8.1737 0.16718-1.4669 1.3043-4.3123 2.9255-7.3972 3.6561 0.2828 3.7174-1.2391 8.3794 1.0181 9.1236 2.0467 0.67479 6.8686-0.68648 10.143-3.848 0.0307 2.0786-1.5779 4.7606-0.0656 9.421 6.7417-2.2753 8.839-5.2512 11.236-7.8872 0.5497 2.4022 2.4772 6.686 4.8871 5.6149" fill="#d21034" fill-rule="evenodd" stroke="#000" stroke-linecap="round" stroke-width=".54489"/>
  <path id="path2403" d="m500.26 217.5c1.7136 0.115 3.8473 0.13989 5.8477 0.0562-0.9694 0.73041-2.4258 1.6748-3.6769 2.3909-0.9499-0.59854-1.5261-1.332-2.1708-2.4472z" fill="#d21034" fill-rule="evenodd" stroke="#000" stroke-linecap="round" stroke-width=".54489"/>
  <path id="path2408" d="m485.65 307.5c-6.1686 0.65744-7.1155 6.2079-17.865 10.007 2.0212 4.2797 11.09 4.8445 16.041 4.9531-3.3164 4.0662-4.3783 10.794-3.798 17.76-2.4793-2.8866-21.87-1.3582-25.983-6.2815 0.7202-7.3607-4.7847-10.562-7.3974-12.643-2.0634 1.8847-3.0202 6.0266-3.0265 8.3305-2.2574-0.51431-7.0705-0.47802-10.51 1.1346 1.1049 3.7704 4.4244 5.7051 7.7532 7.1127-2.3399 2.4029-3.2783 7.5413-2.6955 10.829 1.6998-0.17175 4.3447-0.25495 7.3686-2.5659-0.5343 2.4918 0.2809 5.4804 2.1462 7.7189 2.5759-0.8547 5.4206-3.3852 6.5533-6.2688 2.7937 1.2687 11.287 1.2711 9.7236 9.8315 3.1825-3.2916 8.3337-4.0737 10.165-6.0381 0.2706 2.6328-1.0081 5.7589-3.009 8.0161 2.4761-0.19085 6.118-1.8689 7.4272-3.7084-0.161 2.5743 1.5086 6.1978 2.6159 8.1562 2.4092-0.7366 4.2425-3.4742 4.9576-5.5076 4.11 3.0251 8.6222 2.1606 12.296 0.39344-7.42-5.3084-6.4003-15.733-0.6323-18.19 7.036-2.9973 17.802 4.2718 10.418 15.48 4.6621-2.2035 9.2213-5.2201 11.301-8.4366-3.1695-4.04-6.0213-8.6471-8.1852-13.709-5.214-12.198-6.993-28.158-11.805-34.098-0.6124 9.789-9.2503 7.2324-13.86 7.7237z" fill="#d21034" fill-rule="evenodd" stroke="#000" stroke-linecap="round" stroke-miterlimit="8" stroke-width=".54489"/>
 </g>
</svg>
