<?xml version="1.0" encoding="UTF-8"?>
<svg viewBox="0 0 2400 1200" xml:space="preserve" xmlns="http://www.w3.org/2000/svg">
  <path d="M0 0h2400v1200H0z" fill="#C8102E"/>
  <path d="M0 0h1200v600H0z" fill="#012169"/>
  <path d="M134.169 600H0v-67.083L1065.84 0H1200v67z" fill="#FFF"/>
  <path d="M0 67.086 1065.84 600H1200v-67.082L134.169 0H0z" fill="#FFF"/>
  <path d="m0 200v200h1200v-200z" fill="#FFF"/>
  <path d="M500 600h200V0H500z" fill="#FFF"/>
  <path d="M0 240v120h1200V240.002zM1200 555.279V600L800.003 400.002h89.441zM710.561 200l400-200H1200L800 200zM400 200h-89.438L0 44.726V0zM89.447 600H0l400-200h89.445z" fill="#C8102E"/>
  <path d="m1560.1 500.04 0.072 99.848c0.101 132.7 132.41 254.24 239.86 300.11 107.45-45.864 239.76-167.4 239.86-300.11l0.072-99.808-479.87-0.04z" fill="#007934" stroke="#000" stroke-width="8"/>
  <path d="m1992.82 673.181 18.66-13.026-18.69-13.065 3.06-5.217-39.16-.031 19.541-33.84-6.061.032-2.04-22.706-20.69 9.582-3-5.263-19.529 33.844-19.61-33.897-2.989 5.255-20.66-9.651-1.95 22.675-6.06-.045 19.619 33.888-17.14-.018 2.69 4.568-16.33 11.4 16.35 11.433-2.67 4.563 34.26.034.31.179c-27.102 40.043-63.903 77.775-104.903 107.59l-.026-157.299 29.681 17.102-.03-5.288 19.88-1.726-8.44-18.036 4.601-2.615-14.84-8.552 33.93-19.541-5.27-2.989 9.649-20.612-22.72-1.972.04-6.045-33.931 19.553v-39.077l-5.229 3.057L1800 518.781l-13.12 18.642-5.229-3.057v39.077l-33.931-19.553.04 6.045-22.72 1.972 9.649 20.612-5.27 2.989 33.93 19.541-14.84 8.552 4.601 2.615-8.44 18.036 19.88 1.726-.03 5.288 29.681-17.102-.021 157.002c-40.973-29.866-77.732-67.63-104.77-107.688l.17-.099 34.26-.035-2.67-4.562 16.35-11.434-16.33-11.398 2.69-4.57-17.14.019 19.62-33.889-6.061.046-1.95-22.675-20.66 9.651-2.989-5.254-19.61 33.896-19.529-33.844-3 5.263-20.69-9.582-2.04 22.705-6.061-.031 19.541 33.839-39.16.031 3.06 5.219-18.69 13.064 18.66 13.027-3.069 5.223 39.159-.044-8.58 14.83 5.301-.04 1.699 19.841 18.08-8.445 2.62 4.598 17.16-29.654.309-.179c29.522 43.992 68.903 83.845 114.32 115.688l-.009 66.535 5.84-.039 5.83.039-.012-66.254c45.45-31.794 84.873-71.608 114.453-115.574l.169.098 17.159 29.653 2.621-4.597 18.08 8.445 1.699-19.84 5.301.04-8.58-14.831 39.16.044-3.071-5.221z" fill="#F3CC00"/>
  <path d="m1800 533.22v82.579m46.16 13.344-109.39-60.703m16.91 60.781 109.65-60.951" fill="none" stroke="#007934" stroke-linecap="round" stroke-linejoin="round" stroke-width="1.9998"/>
  <path d="m1787.9 545.08 12.08 20.803 12.08-20.803m-71.1 39.029 24.06-0.059-11.979-20.002m105.96 19.89-24.06-0.06 11.979-20.001" fill="none" stroke="#007934" stroke-linecap="round" stroke-linejoin="round" stroke-width="1.9998"/>
  <path d="m1960.9 597.8-41.279 71.515m33.3 34.638-64.38-107.27m-15.75 61.093 125.44 2.041" fill="none" stroke="#007934" stroke-linecap="round" stroke-linejoin="round" stroke-width="1.9998"/>
  <path d="m1944.5 602.06 0.062 24.054 20.87-11.975m-81.092-1.748 20.86 11.977-0.37-23.309m81.82 70.201-20.801-12.074 20.371-11.335" fill="none" stroke="#007934" stroke-linecap="round" stroke-linejoin="round" stroke-width="1.9998"/>
  <path d="m1639.1 597.49 41.29 71.516m-33.31 34.638 64.38-107.27m15.75 61.094-125.44 2.04" fill="none" stroke="#007934" stroke-linecap="round" stroke-linejoin="round" stroke-width="1.9998"/>
  <path d="m1655.5 601.75-0.062 24.054-20.87-11.973m81.092-1.752-20.86 11.978 0.37-23.308m-81.82 70.201 20.8-12.078-20.37-11.335" fill="none" stroke="#007934" stroke-linecap="round" stroke-linejoin="round" stroke-width="1.9998"/>
  <path d="m1560 300.03h479.96v200.15h-479.96z" fill="#FFF"/>
  <path d="m1822.5 300.06h-45v200.1h45z" fill="#c8102e"/>
  <path d="m2040 377.6h-479.96v45.009h479.96z" fill="#c8102e"/>
  <path d="m1560 300h479.96v200.15h-479.96z" fill="none" stroke="#000" stroke-width="8"/>
  <path d="M540 0v600h120V0z" fill="#C8102E"/>
</svg>
